<svg xmlns="http://www.w3.org/2000/svg" viewBox="0 0 18.79 18.77"><title>Ресурс 1</title><g id="Слой_2" data-name="Слой 2"><g id="Слой_1-2" data-name="Слой 1"><path d="M34.07,25.62a7.24,7.24,0,1,1,7.23-7.24,7.25,7.25,0,0,1-7.23,7.24m0-11.56a4.33,4.33,0,1,0,4.32,4.32,4.33,4.33,0,0,0-4.32-4.32" transform="translate(-26.83 -11.15)" style="fill:#034ea2"/><path d="M44.13,29.92a1.5,1.5,0,0,1-1.07-.44l-5.61-5.61a1.5,1.5,0,0,1,2.13-2.12l5.61,5.61a1.51,1.51,0,0,1,0,2.12,1.47,1.47,0,0,1-1.06.44" transform="translate(-26.83 -11.15)" style="fill:#034ea2"/></g></g></svg>